# xmcd
# Track frame offsets:
# 150
# 14336
# 31062
# 51301
# 66572
# 82262
# 101791
# 119710
# 134436
# 147309
# 164509
# 189043
# 204939
# 222144
# 237019
# 252390
# 267734
# 285145
#
# Disc length: 4070 seconds
# Revision: 0
# Processed by: cddbd v1.5.1PL0 Copyright (c) Steve Scherf et al.
# Submitted via: VisiTrax 2.9.10.228 - For more info visit www.synapsa.com
#
DISCID=120fe412
DTITLE=Various Artist - More Country Heat 2005
DYEAR=5
DGENRE=
TTITLE0=Alan Jackson - Too Much Of A Good THing
TTITLE1=Gretchen Wilson - Redneck Woman
TTITLE2=Kenny Chesney - The Woman With You
TTITLE3=Montgomery Gentry - If You Ever Stop Loving Me
TTITLE4=Lonestar - Mr. Mom
TTITLE5=Brad Paisley and Alison Krauss - Whiskey Lullaby
TTITLE6=Brooks and Dunn - That's What It's All About
TTITLE7=Carolyn Dawn Johnson - Head Over High Hells
TTITLE8=Travis Tritt - The Girls Gone Wild
TTITLE9=Buddy Juwell - Help Pour Out The Rain (Lacey's Song)
TTITLE10=Sara Evans - Tonight
TTITLE11=Andy Griggs - If heaven
TTITLE12=Dierks Bentley - How Am I Doin'
TTITLE13=Craig Morgan - That's What I Love About Sundays
TTITLE14=Gord Bamford - Heroes
TTITLE15=Aaron Pritchett - John Roland Wood
TTITLE16=Adam Gregory - Never Be Another
TTITLE17=Paul Brandt - Convoy
EXTD=
EXTT0=
EXTT1=
EXTT2=
EXTT3=
EXTT4=
EXTT5=
EXTT6=
EXTT7=
EXTT8=
EXTT9=
EXTT10=
EXTT11=
EXTT12=
EXTT13=
EXTT14=
EXTT15=
EXTT16=
EXTT17=
PLAYORDER=
